{"title":"Wege In Die Nacht AKA Paths In The Night (1999)","uid":8844067,"size":1051369599,"categoryP":"video","categoryS":"movies","magnet":"?xt=urn:btih:8b08deb19f75b59bb9980469c8644e3dfc4ba64c&amp;dn=Wege+In+Die+Nacht+AKA+Paths+In+The+Night+%281999%29&amp;tr=udp%3A%2F%2Ftracker.openbittorrent.com%3A80&amp;tr=udp%3A%2F%2Fopen.demonii.com%3A1337&amp;tr=udp%3A%2F%2Ftracker.coppersurfer.tk%3A6969&amp;tr=udp%3A%2F%2Fexodus.desync.com%3A6969","seeders":1,"leechers":0,"uploader":null,"files":3,"time":1377329630,"description":"Wege in Die Nacht/Paths in The Night concerns Walter (Hilmar Thate), a middle-aged man who suddenly finds himself out of a job. While his wife has a job as a waitress and they have no children to support, the loss of his position is still a crushing blow for Walter. He finds himself wandering the city streets at night, trying to find something to do that will give his life some sense of purpose. He strikes up a friendship with a cynical young couple, and later, in hopes of regaining the respect of his wife, he tries to steal an expensive piece of jewelry for her. Shot in black and white and in many ways recalling the German cinema of the 1970s, Wege in Die Nacht/Paths in The Night was shown as part of the Directors Fortnight series at the 1999 Cannes Film Festival.\n\nDirected by Andreas Kleinert\n\nGeneral\n\nFormat                                   : AVI\nFormat/Info                              : Audio Video Interleave\nFile size                                : 997 MiB\nDuration                                 : 1h 32mn\nOverall bit rate                         : 1 506 Kbps\nWriting application                      : VirtualDubMod 1.5.10.2 (build 2540/release)\nWriting library                          : VirtualDubMod build 2540/release\n\nVideo\nID                                       : 0\nFormat                                   : MPEG-4 Visual\nFormat profile                           : Advanced Simple@L5\nFormat settings, BVOP                    : 2\nFormat settings, QPel                    : No\nFormat settings, GMC                     : No warppoints\nFormat settings, Matrix                  : Default (MPEG)\nCodec ID                                 : XVID\nCodec ID/Hint                            : XviD\nDuration                                 : 1h 32mn\nBit rate                                 : 1 304 Kbps\nWidth                                    : 656 pixels\nHeight                                   : 368 pixels\nDisplay aspect ratio                     : 16:9\nFrame rate                               : 25.000 fps\nColor space                              : YUV\nChroma subsampling                       : 4:2:0\nBit depth                                : 8 bits\nScan type                                : Progressive\nCompression mode                         : Lossy\nBits/(Pixel*Frame)                       : 0.216\nStream size                              : 863 MiB (87%)\nWriting library                          : XviD 1.2.1 (UTC 2008-12-04)\n\nAudio\nID                                       : 1\nFormat                                   : AC-3\nFormat/Info                              : Audio Coding 3\nMode extension                           : CM (complete main)\nFormat settings, Endianness              : Big\nCodec ID                                 : 2000\nDuration                                 : 1h 32mn\nBit rate mode                            : Constant\nBit rate                                 : 192 Kbps\nChannel(s)                               : 2 channels\nChannel positions                        : Front: L R\nSampling rate                            : 48.0 KHz\nBit depth                                : 16 bits\nCompression mode                         : Lossy\nStream size                              : 127 MiB (13%)\nAlignment                                : Split accross interleaves\nInterleave, duration                     : 40 ms (1.00 video frame)\nInterleave, preload duration             : 500 ms\n\n","torrent":{"xt":"urn:btih:8b08deb19f75b59bb9980469c8644e3dfc4ba64c","amp;dn":"Wege+In+Die+Nacht+AKA+Paths+In+The+Night+%281999%29","amp;tr":["udp%3A%2F%2Ftracker.openbittorrent.com%3A80","udp%3A%2F%2Fopen.demonii.com%3A1337","udp%3A%2F%2Ftracker.coppersurfer.tk%3A6969","udp%3A%2F%2Fexodus.desync.com%3A6969"],"infoHash":"8b08deb19f75b59bb9980469c8644e3dfc4ba64c","infoHashBuffer":{"type":"Buffer","data":[139,8,222,177,159,117,181,155,185,152,4,105,200,100,78,61,252,75,166,76]},"announce":[],"urlList":[]}}